<svg width="364" height="376" viewBox="0 0 364 376" fill="none" xmlns="http://www.w3.org/2000/svg">
<path d="M176.881 24.097C191.475 18.3212 208.096 20.6785 220.484 30.2811L319.142 106.757C331.53 116.359 337.808 131.708 335.602 147.086C331.4 176.376 324.202 226.552 318.025 269.614C315.819 284.992 305.471 298.011 290.877 303.787L174.65 349.787C160.056 355.563 143.435 353.205 131.047 343.603L32.3896 267.127C20.0018 257.524 13.7296 242.136 15.9357 226.757L33.505 104.282C35.7111 88.9038 46.0603 75.8723 60.6542 70.0964L176.881 24.097Z" fill="#007163"/>
<path fill-rule="evenodd" clip-rule="evenodd" d="M178.979 259.73C177.463 245.987 171.007 240.186 145.849 216.703C120.692 193.22 128.166 132.278 128.166 132.278C128.166 132.278 142.445 156.474 159.511 165.658C176.577 174.842 187.24 195.518 186.845 207.111L193.099 161.403C193.099 161.403 197.338 145.095 210.769 139.86C224.199 134.625 236.755 126.637 239.728 119.167C239.728 119.167 240.624 150.483 226.707 163.539C212.789 176.596 196.108 177.987 193.34 186.238L179.677 279.368L176.619 278.576L178.979 259.73Z" fill="#FFFEFB"/>
<path fill-rule="evenodd" clip-rule="evenodd" d="M185.036 145.609C185.036 145.609 188.354 144.577 179.688 132.074C171.022 119.573 183.881 96.22 183.881 96.22C183.881 96.22 184.999 103.894 189.176 110.123C193.354 116.352 197.037 132.656 185.036 145.609Z" fill="#FFFEFB"/>
<path d="M182.645 24.8306C197.823 19.2495 215.184 21.7117 228.188 31.2898L331.752 107.571C344.756 117.149 351.433 132.348 349.259 147.507C345.117 176.379 338.021 225.841 331.932 268.289C329.757 283.448 319.069 296.212 303.891 301.793L175.518 348.974C160.34 354.555 142.979 352.093 129.975 342.515L29.996 269.365C16.9921 259.787 14.2246 238.685 16.3993 223.526L33.7182 102.796C35.8929 87.6368 46.5829 74.8602 61.7614 69.2791L182.645 24.8306Z" fill="url(#paint0_linear_2514_260)"/>
<defs>
<linearGradient id="paint0_linear_2514_260" x1="134.661" y1="348.98" x2="228.281" y2="25.3567" gradientUnits="userSpaceOnUse">
<stop stop-color="#3C6350" stop-opacity="0.4"/>
<stop offset="1" stop-color="white" stop-opacity="0.2"/>
</linearGradient>
</defs>
</svg>
