<svg width="30" height="36" viewBox="0 0 30 36" fill="none" xmlns="http://www.w3.org/2000/svg">
<path fill-rule="evenodd" clip-rule="evenodd" d="M3.80697 31.5528C4.84124 28.7353 4.1319 26.9626 1.45372 19.8845C-1.22452 12.8065 6.15854 1.73635 6.15854 1.73635C6.15854 1.73635 6.62465 7.86135 9.09576 11.3544C11.5669 14.8475 11.6621 19.9272 10.4599 22.136L16.125 13.8981C16.125 13.8981 18.5418 11.1602 21.6954 11.4921C24.8487 11.8238 28.097 11.5337 29.4071 10.3831C29.4071 10.3831 26.5464 16.5469 22.5385 17.6833C18.5304 18.8198 15.1093 17.4165 13.7638 18.739L2.03969 35.4319L1.51416 34.9714L3.80697 31.5528Z" fill="#007163"/>
<path fill-rule="evenodd" clip-rule="evenodd" d="M16.0687 10.0261C16.0687 10.0261 16.8223 10.1587 16.3278 6.86457C15.8332 3.57053 20.6312 0.330919 20.6312 0.330919C20.6312 0.330919 20.1071 1.9315 20.326 3.55865C20.5448 5.1858 19.689 8.71755 16.0687 10.0261Z" fill="#007163"/>
</svg>
