<svg width="1920" height="435" viewBox="0 0 1920 435" fill="none" xmlns="http://www.w3.org/2000/svg">
<g opacity="0.2">
<path fill-rule="evenodd" clip-rule="evenodd" d="M983.141 244.932L1329.21 244.932V591H1292.13C1121.48 591 983.141 452.661 983.141 282.011V244.932Z" fill="#007163" fill-opacity="0.3"/>
<path fill-rule="evenodd" clip-rule="evenodd" d="M949.377 244.932L603.309 244.932V591H640.388C811.038 591 949.377 452.661 949.377 282.011V244.932Z" fill="#007163" fill-opacity="0.3"/>
<path fill-rule="evenodd" clip-rule="evenodd" d="M552.662 591H210.815L210.815 244.932H247.441C416.01 244.932 552.662 383.271 552.662 553.921V591Z" fill="#007163" fill-opacity="0.3"/>
<path fill-rule="evenodd" clip-rule="evenodd" d="M-177.454 591H168.614L168.614 244.932H131.535C-39.115 244.932 -177.454 383.271 -177.454 553.921V591Z" fill="#007163" fill-opacity="0.3"/>
<path fill-rule="evenodd" clip-rule="evenodd" d="M-177.454 -155.999L168.614 -155.999L168.614 190.069H131.535C-39.115 190.069 -177.454 51.7295 -177.454 -118.92V-155.999Z" fill="#007163" fill-opacity="0.3"/>
<path fill-rule="evenodd" clip-rule="evenodd" d="M548.444 190.068L202.377 190.068L202.377 -156H239.455C410.105 -156 548.444 -17.6607 548.444 152.989V190.068Z" fill="#007163" fill-opacity="0.3"/>
<path fill-rule="evenodd" clip-rule="evenodd" d="M2097.31 591H1751.24V244.932H1788.32C1958.97 244.932 2097.31 383.271 2097.31 553.921V591Z" fill="#007163" fill-opacity="0.3"/>
<path fill-rule="evenodd" clip-rule="evenodd" d="M1367.19 591H1709.04V244.932H1672.41C1503.84 244.932 1367.19 383.271 1367.19 553.921V591Z" fill="#007163" fill-opacity="0.3"/>
<path fill-rule="evenodd" clip-rule="evenodd" d="M1367.19 -155.999L1709.04 -155.999V190.069H1672.41C1503.84 190.069 1367.19 51.73 1367.19 -118.92V-155.999Z" fill="#007163" fill-opacity="0.3"/>
<path fill-rule="evenodd" clip-rule="evenodd" d="M2088.87 190.068L1747.02 190.068V-156H1783.65C1952.22 -156 2088.87 -17.6607 2088.87 152.989V190.068Z" fill="#007163" fill-opacity="0.3"/>
<path fill-rule="evenodd" clip-rule="evenodd" d="M940.937 190.068L599.089 190.068V-156H635.716C804.285 -156 940.937 -17.6607 940.937 152.989V190.068Z" fill="#007163" fill-opacity="0.3"/>
<path fill-rule="evenodd" clip-rule="evenodd" d="M983.141 190.068L1329.21 190.068V-156H1292.13C1121.48 -156 983.141 -17.6607 983.141 152.989V190.068Z" fill="#007163" fill-opacity="0.3"/>
</g>
</svg>
