<svg width="39" height="40" viewBox="0 0 39 40" fill="none" xmlns="http://www.w3.org/2000/svg">
<path d="M16.1866 0.922466C12.8733 1.6972 9.92925 3.24667 7.49582 5.49492C6.10529 6.77096 3.96518 9.76356 3.05265 11.708C1.08635 15.9007 0.0108635 20.9744 0 26.1545C0 27.1115 0.0543175 28.3116 0.119499 28.8129C1.23844 37.6692 8.039 42.2872 13.7858 38.0642C15.7847 36.5907 17.3273 34.0234 18.1203 30.8029C18.4788 29.375 18.5114 29.0864 18.5549 27.1267C18.5875 25.3494 18.5657 24.7873 18.3702 23.6632C17.8053 20.3668 16.3604 17.4653 14.3616 15.6424C13.1123 14.5031 12.0476 14.0018 10.027 13.5917C9.83148 13.5461 9.66852 13.4398 9.66852 13.3334C9.66852 12.7562 10.5919 11.0244 11.7869 9.35341C13.2209 7.33302 14.405 6.10256 16.4908 4.46194C18.6744 2.74537 18.5223 2.91247 18.5549 2.09217C18.5875 1.49972 18.544 1.31743 18.3159 0.998421C17.99 0.542694 17.7836 0.542694 16.1866 0.922466Z" fill="#151515"/>
<path d="M37.0444 0.801037C31.743 2.0315 27.4954 4.94815 24.8447 9.17121C23.3564 11.541 21.9767 14.9589 21.3032 17.9364C20.6514 20.8682 20.4775 22.5392 20.4775 26.0635V29.2536L20.836 30.6967C22.27 36.4692 26.0071 39.9783 30.2982 39.6137C33.6984 39.3251 36.599 36.5908 38.0764 32.3069C38.7065 30.4688 38.8912 29.451 38.9672 27.2787C39.0976 23.4203 38.272 20.3517 36.3491 17.511C34.7956 15.2172 33.0358 14.0475 30.5046 13.607C29.994 13.5158 29.994 13.5158 30.1135 13.1057C31.0151 10.1586 34.2525 6.22418 37.9243 3.65692C38.8151 3.01891 38.9998 2.74547 38.9998 2.00111C38.9998 1.34791 38.9021 1.08966 38.5544 0.846607C38.2177 0.588364 37.9352 0.588364 37.0444 0.801037Z" fill="#151515"/>
</svg>
