<svg width="89" height="89" viewBox="0 0 89 89" fill="none" xmlns="http://www.w3.org/2000/svg">
<g clip-path="url(#clip0_1764_1479)">
<path d="M38.6486 0.753204C30.6593 1.79039 23.3444 4.85008 16.9461 9.79399C14.9228 11.3671 11.4815 14.7552 9.80413 16.8296C5.03131 22.7415 1.86671 29.7252 0.517872 37.3312C0.0336725 40.0279 -0.156549 46.5103 0.154722 49.4663C1.57274 62.7076 8.88761 74.618 20.1453 81.9647C25.7481 85.6121 32.06 87.9112 38.908 88.7582C41.5365 89.0867 47.0702 89.0694 49.8025 88.7409C69.8622 86.2517 85.7889 70.3309 88.2791 50.2787C88.6249 47.4783 88.6249 42.0158 88.2791 39.2154C86.6881 26.3544 79.477 14.8243 68.5652 7.65047C62.8759 3.91662 56.5467 1.60024 49.8025 0.753204C47.174 0.442055 41.1388 0.442055 38.6486 0.753204ZM55.7858 19.6818C58.3452 19.9065 60.0917 20.3733 62.0804 21.3586C63.4638 22.0328 63.9653 22.4131 65.2969 23.7268C66.6111 25.0579 66.9916 25.5592 67.666 26.9421C69.4299 30.5031 69.5682 31.9724 69.4645 46.13C69.4126 56.4154 69.378 57.2106 69.0494 58.6799C67.7871 64.2116 64.2766 67.9627 59.0888 69.2765C56.7023 69.8988 54.4197 70.0025 44.2688 70.0025C31.524 70.0025 29.8984 69.8296 26.4571 68.1356C25.0737 67.4614 24.5722 67.0811 23.2407 65.7673C21.9264 64.4363 21.546 63.935 20.8716 62.5521C19.1769 59.1121 19.0212 57.6082 19.0212 44.7471C19.0212 31.886 19.1769 30.3821 20.8716 26.9421C21.546 25.5592 21.9091 25.0579 23.2407 23.7441C25.4023 21.6006 27.3391 20.598 30.6593 19.9238C33.063 19.4398 50.9611 19.2669 55.7858 19.6818Z" fill="white"/>
<path d="M33.6333 24.0034C30.192 24.2454 27.9958 25.0751 26.2665 26.8038C24.5372 28.5497 23.7936 30.5895 23.517 34.3406C23.3094 37.1929 23.3094 52.3012 23.517 55.1535C23.7936 58.8873 24.5545 60.9617 26.3011 62.7076C28.1342 64.5573 30.0882 65.2141 34.4115 65.508C38.0948 65.75 55.111 65.6117 56.7019 65.3351C61.4575 64.4708 63.9995 61.9297 64.8642 57.176C65.1409 55.5856 65.2792 38.5758 65.0371 34.8938C64.7431 30.5204 64.1033 28.6361 62.2357 26.7865C60.4545 25.006 58.4312 24.2627 54.5749 24.0034C51.9118 23.8132 36.3828 23.8305 33.6333 24.0034ZM59.1575 28.6016C60.2643 29.172 61.0079 30.6932 60.6966 31.765C60.0222 34.1505 57.4801 34.8938 55.8027 33.217C53.4682 30.8834 56.2177 27.0976 59.1575 28.6016ZM47.8134 32.3009C50.0788 33.0096 51.6351 33.9603 53.3471 35.6717C55.0764 37.4003 56.0102 38.9388 56.7365 41.2898C57.3245 43.1567 57.3245 46.3374 56.7365 48.2043C56.0102 50.5553 55.0764 52.0938 53.3471 53.8224C51.6178 55.5511 50.0788 56.4845 47.727 57.2105C45.8593 57.7983 42.6774 57.7983 40.8098 57.2105C38.458 56.4845 36.9189 55.5511 35.1896 53.8224C33.4604 52.0938 32.5265 50.5553 31.8002 48.2043C31.2123 46.3374 31.2123 43.1567 31.8002 41.2898C33.1145 37.02 36.3137 33.7356 40.4294 32.3873C41.9166 31.9033 42.8677 31.7995 44.7872 31.8687C45.9977 31.9033 47.0007 32.0588 47.8134 32.3009Z" fill="white"/>
<path d="M41.5539 36.6224C39.2885 37.3657 37.1961 39.3363 36.2969 41.5835C35.951 42.4479 35.8818 42.88 35.8818 44.747C35.8818 46.5966 35.951 47.046 36.2796 47.8931C37.1269 49.9847 39.0291 51.8862 41.1216 52.7333C41.9689 53.0617 42.4185 53.1309 44.2689 53.1309C46.1192 53.1309 46.5688 53.0617 47.4162 52.7333C49.5086 51.8862 51.4108 49.9847 52.2582 47.8931C52.5867 47.046 52.6559 46.5966 52.6559 44.747C52.6559 42.8973 52.5867 42.4479 52.2582 41.6008C51.4108 39.5092 49.4913 37.5904 47.4162 36.7779C45.9809 36.2075 43.0584 36.1383 41.5539 36.6224Z" fill="white"/>
</g>
<defs>
<clipPath id="clip0_1764_1479">
<rect width="88.5229" height="88.5229" fill="white" transform="translate(0 0.477539)"/>
</clipPath>
</defs>
</svg>
