<svg width="392" height="444" viewBox="0 0 392 444" fill="none" xmlns="http://www.w3.org/2000/svg">
<ellipse cx="166.527" cy="57.4345" rx="166.527" ry="57.4345" transform="matrix(0.982566 0.185914 -0.187971 0.982175 21.5908 269.26)" fill="#A29C9C" fill-opacity="0.6"/>
<path d="M204.88 24.097C219.474 18.3212 236.096 20.6785 248.484 30.2811L347.141 106.757C359.529 116.359 365.807 131.708 363.601 147.086C359.399 176.376 352.201 226.552 346.024 269.614C343.818 284.992 333.47 298.011 318.877 303.787L202.65 349.787C188.056 355.563 171.434 353.205 159.047 343.603L60.3889 267.127C48.0011 257.524 41.7289 242.136 43.9349 226.757L61.5043 104.282C63.7104 88.9038 74.0596 75.8723 88.6534 70.0964L204.88 24.097Z" fill="#007163"/>
<path fill-rule="evenodd" clip-rule="evenodd" d="M206.979 259.73C205.463 245.987 199.006 240.186 173.848 216.703C148.691 193.22 156.165 132.278 156.165 132.278C156.165 132.278 170.444 156.474 187.51 165.658C204.576 174.842 215.239 195.518 214.844 207.111L221.098 161.403C221.098 161.403 225.337 145.095 238.768 139.86C252.198 134.625 264.754 126.637 267.727 119.167C267.727 119.167 268.623 150.483 254.706 163.539C240.789 176.596 224.107 177.987 221.339 186.238L207.676 279.368L204.618 278.576L206.979 259.73Z" fill="#FFFEFB"/>
<path fill-rule="evenodd" clip-rule="evenodd" d="M213.036 145.609C213.036 145.609 216.353 144.577 207.688 132.074C199.021 119.573 211.88 96.22 211.88 96.22C211.88 96.22 212.998 103.894 217.176 110.123C221.353 116.352 225.036 132.656 213.036 145.609Z" fill="#FFFEFB"/>
<path d="M210.644 24.8306C225.822 19.2495 243.184 21.7117 256.187 31.2898L359.752 107.571C372.756 117.149 379.432 132.348 377.258 147.507C373.116 176.379 366.021 225.841 359.931 268.289C357.757 283.448 347.069 296.212 331.89 301.793L203.518 348.974C188.339 354.555 170.978 352.093 157.974 342.515L57.9953 269.365C44.9914 259.787 42.2239 238.685 44.3985 223.526L61.7175 102.796C63.8921 87.6368 74.5821 74.8602 89.7606 69.2791L210.644 24.8306Z" fill="url(#paint0_linear_1764_1783)"/>
<defs>
<linearGradient id="paint0_linear_1764_1783" x1="162.66" y1="348.98" x2="256.28" y2="25.3567" gradientUnits="userSpaceOnUse">
<stop stop-color="#3C6350" stop-opacity="0.4"/>
<stop offset="1" stop-color="white" stop-opacity="0.2"/>
</linearGradient>
</defs>
</svg>
