<svg width="768" height="720" viewBox="0 0 768 720" fill="none" xmlns="http://www.w3.org/2000/svg">
<path d="M14.5707 358.896C36.6214 226.659 57.358 167.915 138.806 140.114C220.254 112.313 309.114 171.506 409.72 90.8323C525.456 -1.97472 586.01 37.8879 669.696 6.50362C717.012 -11.2408 768.31 7.77524 767.178 58.042C764.602 172.396 694.431 231.302 670.838 308.705C657.154 353.595 675.103 395.831 668.897 492.116C661.949 599.904 562.321 551.308 577.262 605.799C592.203 660.29 570.807 690.436 508.702 709.282C446.596 728.128 343.264 714.241 278.986 715.186C214.708 716.131 128.861 694.186 97.4855 647.091C66.1101 599.996 133.687 577.812 112.362 530.851C91.0371 483.89 -42.9604 501.587 14.5707 358.896Z" fill="#FEFFFF" fill-opacity="0.5"/>
<path opacity="0.2" d="M336.8 676.451C446.742 676.451 535.869 659.569 535.869 638.743C535.869 617.918 446.742 601.036 336.8 601.036C226.857 601.036 137.73 617.918 137.73 638.743C137.73 659.569 226.857 676.451 336.8 676.451Z" fill="url(#paint0_radial_1764_1624)"/>
<path d="M397.974 205.199C397.974 205.199 498.39 233.679 496.479 287.743C494.568 341.806 368.706 382.416 249.354 346.515C130.003 310.613 173.348 182.181 397.974 205.199Z" fill="url(#paint1_linear_1764_1624)"/>
<path d="M314.489 418.901C314.489 418.901 346.057 627.087 310.952 627.779C275.847 628.472 222.116 631.587 227.847 624.318C233.579 617.048 287.133 625.498 293.212 604.446C299.291 583.395 312.385 488.271 295.191 425.959C277.997 363.647 314.489 418.901 314.489 418.901Z" fill="#1A1A1A"/>
<path d="M353.137 418.901C353.137 418.901 321.569 627.087 356.673 627.779C391.778 628.472 445.51 631.587 439.779 624.318C434.047 617.048 380.493 625.498 374.413 604.446C368.334 583.395 355.241 488.271 372.434 425.959C389.628 363.647 353.137 418.901 353.137 418.901Z" fill="#1A1A1A"/>
<path d="M501.642 293.813C501.642 293.813 552.154 263.507 577.381 291.695C602.608 319.882 597.773 438.703 502.64 444.059C407.508 449.415 504.488 416.973 504.488 416.973C504.488 416.973 528.627 430.351 552.066 395.333C575.506 360.315 579.955 271.471 507.852 309.708C435.748 347.945 501.642 293.813 501.642 293.813Z" fill="white"/>
<path d="M543.754 279.875C522.276 281.45 501.643 293.813 501.643 293.813C501.643 293.813 435.75 347.947 507.854 309.71C525.849 300.167 539.071 298.54 548.424 302.016C548.125 299.938 547.797 297.857 547.431 295.772C546.427 290.058 545.184 284.79 543.754 279.875ZM528.272 416.894C514.701 422.547 504.486 416.974 504.486 416.974C504.486 416.974 407.509 449.413 502.641 444.057C505.262 443.909 507.804 443.66 510.29 443.345C517.117 435.075 523.115 426.217 528.272 416.894Z" fill="url(#paint2_linear_1764_1624)"/>
<path d="M145.888 407.28C145.888 407.28 72.2788 451.177 52.2302 429.415C32.1816 407.654 99.2969 353.968 85.6417 333.163C71.9865 312.359 107.901 294.639 114.972 309.218C122.043 323.796 113.691 345.104 100.211 362.227C86.7318 379.35 53.2546 424.469 90.8322 418.777C128.41 413.084 165.582 383.481 165.582 383.481L145.888 407.28Z" fill="#1A1A1A"/>
<path d="M504.487 416.972C504.487 416.972 572.521 468.899 559.195 495.208C545.868 521.517 464.508 482.745 449.779 502.824C435.05 522.902 410.877 490.639 422.099 478.869C433.321 467.099 456.467 467.099 477.508 473.33C498.55 479.561 553.258 494.101 534.321 461.56C515.383 429.019 474.002 405.479 474.002 405.479L504.487 416.972Z" fill="#1A1A1A"/>
<path d="M129.774 250.077C129.774 250.077 59.6351 439.781 249.009 497.939C438.384 556.096 559.022 432.857 535.175 297.157C511.328 161.456 364.037 258.385 243.398 240.384C122.76 222.383 136.788 238.999 129.774 250.077Z" fill="url(#paint3_linear_1764_1624)"/>
<path d="M207.663 200.053C207.663 200.053 216.346 204.301 216.181 212.365C216.015 220.428 205.132 226.486 194.812 221.131C184.492 215.776 188.24 196.619 207.663 200.053Z" fill="url(#paint4_linear_1764_1624)"/>
<path d="M235.951 193.564C235.951 193.564 240.005 195.547 239.928 199.313C239.852 203.078 234.77 205.906 229.951 203.406C225.133 200.905 226.883 191.961 235.951 193.564Z" fill="url(#paint5_linear_1764_1624)"/>
<path fill-rule="evenodd" clip-rule="evenodd" d="M294.413 452.176C292.656 446.502 288.985 444.453 274.615 436.1C260.246 427.747 259.607 401.743 259.607 401.743C259.607 401.743 268.548 411.042 277.808 413.879C287.069 416.715 293.934 424.753 294.572 429.639L294.42 410.096C294.42 410.096 295.377 403.004 301.764 400.01C308.15 397.015 313.898 392.918 314.856 389.608C314.856 389.608 317.57 402.689 311.503 408.993C305.436 415.297 297.134 416.873 296.336 420.498L296.183 460.371L294.586 460.22L294.413 452.176Z" fill="#4FC780"/>
<path fill-rule="evenodd" clip-rule="evenodd" d="M289.216 403.95C289.216 403.95 290.812 403.319 285.544 398.591C280.275 393.863 285.065 383.304 285.065 383.304C285.065 383.304 286.183 386.456 288.737 388.82C291.292 391.184 294.325 397.803 289.216 403.95Z" fill="#4FC780"/>
<path d="M236.984 352.325C236.971 348.854 235.579 345.526 233.105 343.059C230.632 340.592 227.276 339.183 223.76 339.135C220.244 339.086 216.849 340.403 214.307 342.801C211.765 345.2 210.279 348.487 210.169 351.957" stroke="#1A1A1A" stroke-width="4.39639" stroke-linecap="round" stroke-linejoin="round"/>
<path d="M362.478 351.915C362.466 348.444 361.073 345.116 358.599 342.649C356.126 340.182 352.77 338.773 349.254 338.725C345.738 338.676 342.343 339.993 339.802 342.391C337.26 344.789 335.773 348.077 335.663 351.547" stroke="#1A1A1A" stroke-width="4.39639" stroke-linecap="round" stroke-linejoin="round"/>
<path d="M132.345 270.783C132.949 277.673 138.31 279.001 143.922 280.034L155.17 291.468C141.685 298.432 123.89 292.302 117.016 277.075C120.77 273.725 124.904 270.726 132.345 270.783Z" fill="#CCCCCC"/>
<path d="M132.344 270.783C155.955 249.132 175.88 266.708 175.88 266.708C170.55 268.077 166.9 269.905 163.485 271.797C156.455 270.38 145.155 277.875 143.92 280.034C138.299 278.942 132.848 277.656 132.344 270.783Z" fill="#CCCCCC"/>
<path d="M158.115 271.963C162.018 279.267 162.912 283.308 172.41 282.245L183.968 293.719C167.067 302.446 150.798 295.261 143.924 280.034C144.816 278.404 150.135 274.318 158.115 271.963Z" fill="#CCCCCC"/>
<path d="M158.263 272.233C181.874 250.582 203.049 269.558 203.051 269.559C197.72 270.928 194.071 272.756 190.655 274.648C183.626 273.231 173.644 280.086 172.409 282.245C162.602 283.519 161.711 278.487 158.263 272.233Z" fill="#CCCCCC"/>
<path d="M186.76 274.5C187.364 281.39 192.987 282.609 198.599 283.643L206.468 294.55C194.772 299.142 185.567 299.351 172.409 282.245C172.154 282.103 176.038 276.598 186.76 274.5Z" fill="#CCCCCC"/>
<path d="M186.759 274.5C210.37 252.848 230.295 270.425 230.295 270.425C224.965 271.794 221.316 273.622 217.9 275.514C210.87 274.097 199.57 281.592 198.335 283.751C192.714 282.658 187.263 281.373 186.759 274.5Z" fill="#CCCCCC"/>
<path d="M210.832 276.23C212.76 276.018 219.894 285.569 225.506 286.602L233.69 297.137C220.205 304.101 205.474 298.87 198.6 283.643C197.81 284.114 201.704 279.27 210.832 276.23Z" fill="#CCCCCC"/>
<path d="M210.831 276.23C234.442 254.578 257.464 273.276 257.464 273.276C252.134 274.645 248.485 276.473 245.069 278.365C238.04 276.948 226.739 284.443 225.504 286.602C221.099 285.843 214.428 279.716 210.831 276.23Z" fill="#CCCCCC"/>
<path d="M237.782 279.372C238.727 279.179 245.22 286.287 250.802 287.395L260.393 299.049C246.907 306.013 232.378 301.829 225.504 286.602C227.325 283.634 235.562 278.834 237.782 279.372Z" fill="#CCCCCC"/>
<path d="M237.782 279.372C261.393 257.72 282.76 274.067 282.762 274.068C277.432 275.437 273.782 277.265 270.367 279.157C263.337 277.74 252.037 285.235 250.802 287.395C245.642 286.024 242.671 283.606 237.782 279.372Z" fill="#CCCCCC"/>
<path d="M265.231 279.256C265.835 286.145 272.605 289.221 277.971 290.245L287.441 301.833C274.722 305.36 261.374 307.931 250.803 287.395C253.978 283.798 259.696 280.591 265.231 279.256Z" fill="#CCCCCC"/>
<path d="M265.231 279.256C288.843 257.604 309.932 276.919 309.932 276.919C304.601 278.288 300.952 280.116 297.536 282.007C290.507 280.591 279.207 288.085 277.972 290.245C272.351 289.152 265.736 286.129 265.231 279.256Z" fill="#CCCCCC"/>
<path d="M294.144 282.633C294.748 289.522 298.832 292.224 304.443 293.258C308.081 297.804 310.356 298.887 313.375 301.28C299.897 308.559 284.893 307.499 277.97 290.245C281.549 286.027 291.978 280.888 294.144 282.633Z" fill="#CCCCCC"/>
<path d="M292.092 282.597C315.703 260.946 335.15 279.695 335.151 279.696C329.821 281.065 326.172 282.893 322.756 284.785C315.727 283.368 305.68 291.099 304.445 293.258C298.824 292.165 292.596 289.47 292.092 282.597Z" fill="#CCCCCC"/>
<path d="M317.408 282.995C319.094 289.707 326.268 291.701 331.73 291.886L342.917 301.872C330.912 307.316 318.134 311.913 304.444 293.258C307.012 289.216 312.152 285.167 317.408 282.995Z" fill="#CCCCCC"/>
<path d="M317.406 282.995C337.303 257.97 361.188 273.797 361.188 273.797C356.14 275.971 352.825 278.339 349.75 280.734C342.583 280.418 332.607 289.563 331.729 291.886C326.004 291.673 318.992 289.706 317.406 282.995Z" fill="#CCCCCC"/>
<path d="M345.59 281.069C347.737 287.652 352.328 289.385 358.032 289.157C362.606 292.787 365.068 293.341 368.552 295.009C357.06 305.073 342.195 307.346 331.545 292.053C334.081 287.153 343.084 279.845 345.59 281.069Z" fill="#CCCCCC"/>
<path d="M343.581 281.486C361.701 255.179 384.897 269.171 384.899 269.172C380.012 271.68 376.868 274.266 373.966 276.863C366.794 277.031 358.748 286.78 358.033 289.157C352.306 289.329 345.627 288.075 343.581 281.486Z" fill="#CCCCCC"/>
<path d="M367.88 275.999C370.027 282.581 377.321 284.087 382.784 283.904L394.635 293.113C383.034 299.353 370.604 304.8 355.656 287.111C357.938 282.905 362.787 278.519 367.88 275.999Z" fill="#CCCCCC"/>
<path d="M367.879 275.999C385.999 249.692 410.921 263.872 410.923 263.873C406.037 266.382 402.893 268.968 399.991 271.564C392.819 271.732 383.498 281.527 382.783 283.904C377.056 284.077 369.925 282.587 367.879 275.999Z" fill="#CCCCCC"/>
<path d="M396.827 272.921C398.974 279.503 403.565 281.237 409.269 281.008C413.843 284.638 416.306 285.193 419.79 286.861C408.297 296.925 393.432 299.197 382.782 283.904C385.318 279.004 394.321 271.697 396.827 272.921Z" fill="#CCCCCC"/>
<path d="M394.818 273.337C412.939 247.03 436.134 261.022 436.136 261.023C431.249 263.532 428.106 266.118 425.204 268.714C418.031 268.882 409.986 278.631 409.27 281.008C403.544 281.18 396.864 279.926 394.818 273.337Z" fill="#CCCCCC"/>
<path d="M419.117 267.85C421.264 274.433 428.559 275.939 434.021 275.755L445.872 284.964C434.272 291.205 421.841 296.652 406.894 278.962C409.176 274.756 414.024 270.371 419.117 267.85Z" fill="#CCCCCC"/>
<path d="M419.117 267.85C437.237 241.543 462.16 255.723 462.161 255.724C457.275 258.233 454.131 260.819 451.229 263.416C444.057 263.583 434.736 273.379 434.021 275.756C428.294 275.929 421.163 274.439 419.117 267.85Z" fill="#CCCCCC"/>
<path d="M448.066 264.772C450.212 271.354 454.803 273.088 460.507 272.86C465.082 276.49 467.544 277.044 471.028 278.712C459.536 288.776 444.671 291.048 434.021 275.755C436.556 270.855 445.56 263.548 448.066 264.772Z" fill="#CCCCCC"/>
<path d="M446.057 265.189C464.177 238.882 487.374 252.875 487.374 252.875C482.488 255.384 479.344 257.97 476.442 260.566C469.27 260.734 461.224 270.483 460.508 272.86C454.782 273.033 448.102 271.778 446.057 265.189Z" fill="#CCCCCC"/>
<path d="M471.992 260.866C474.139 267.449 481.434 268.955 486.896 268.772L498.747 277.98C487.147 284.221 474.716 289.668 459.769 271.978C462.051 267.773 466.899 263.387 471.992 260.866Z" fill="#CCCCCC"/>
<path d="M471.991 260.867C490.111 234.559 515.035 248.741 515.035 248.741C510.149 251.249 507.005 253.835 504.103 256.432C496.931 256.599 487.61 266.395 486.895 268.772C481.168 268.945 474.037 267.455 471.991 260.867Z" fill="#CCCCCC"/>
<path d="M500.942 257.788C503.088 264.371 507.679 266.105 513.383 265.876C517.958 269.506 520.42 270.06 523.904 271.728C512.411 281.793 497.546 284.065 486.896 268.772C489.432 263.872 498.436 256.565 500.942 257.788Z" fill="#CCCCCC"/>
<path d="M130.337 271.201C130.941 278.09 136.301 279.418 141.913 280.452L153.162 291.886C139.676 298.85 126.049 294.344 119.175 279.117C122.929 275.767 122.895 271.144 130.337 271.201Z" fill="#CCCCCC"/>
<path d="M156.104 272.38C160.007 279.684 160.901 283.726 170.399 282.662L181.957 294.136C165.056 302.864 148.787 295.679 141.913 280.452C142.805 278.822 148.124 274.736 156.104 272.38Z" fill="#CCCCCC"/>
<path d="M184.749 274.917C185.354 281.807 190.976 283.026 196.588 284.06L204.457 294.968C192.762 299.559 183.557 299.769 170.398 282.662C170.143 282.52 174.027 277.015 184.749 274.917Z" fill="#CCCCCC"/>
<path d="M208.82 276.647C210.747 276.435 217.881 285.986 223.493 287.02L231.678 297.555C218.192 304.518 203.461 299.287 196.587 284.06C195.797 284.531 199.691 279.687 208.82 276.647Z" fill="#CCCCCC"/>
<path d="M235.772 279.789C236.717 279.596 243.21 286.704 248.792 287.812L258.383 299.466C244.897 306.43 230.368 302.246 223.494 287.019C225.315 284.051 233.552 279.251 235.772 279.789Z" fill="#CCCCCC"/>
<path d="M263.221 279.673C263.825 286.562 270.595 289.638 275.961 290.662L285.432 302.25C272.713 305.777 259.364 308.348 248.793 287.812C251.968 284.215 257.686 281.008 263.221 279.673Z" fill="#CCCCCC"/>
<path d="M292.134 283.05C292.738 289.94 296.822 292.641 302.434 293.675C306.071 298.221 308.346 299.304 311.365 301.697C297.887 308.976 282.884 307.916 275.96 290.663C279.54 286.445 289.968 281.305 292.134 283.05Z" fill="#CCCCCC"/>
<path d="M315.398 283.412C317.085 290.124 324.258 292.118 329.721 292.303L340.908 302.289C328.902 307.733 316.124 312.33 302.435 293.675C305.002 289.633 310.142 285.584 315.398 283.412Z" fill="#CCCCCC"/>
<path d="M343.58 281.486C345.727 288.069 350.318 289.802 356.022 289.574C360.596 293.204 363.058 293.758 366.542 295.426C355.05 305.49 340.185 307.763 329.535 292.47C332.071 287.569 341.074 280.262 343.58 281.486Z" fill="#CCCCCC"/>
<path d="M365.87 276.416C368.017 282.999 375.312 284.505 380.774 284.321L392.625 293.53C381.025 299.771 368.594 305.218 353.646 287.528C355.928 283.322 360.777 278.937 365.87 276.416Z" fill="#CCCCCC"/>
<path d="M394.818 273.338C396.964 279.92 401.555 281.654 407.26 281.426C411.834 285.056 414.296 285.61 417.78 287.278C406.287 297.342 391.423 299.614 380.772 284.321C383.308 279.421 392.312 272.114 394.818 273.338Z" fill="#CCCCCC"/>
<path d="M417.108 268.268C419.254 274.85 426.549 276.356 432.011 276.173L443.863 285.382C432.262 291.622 419.831 297.07 404.884 279.38C407.166 275.174 412.014 270.788 417.108 268.268Z" fill="#CCCCCC"/>
<path d="M446.056 265.189C448.203 271.772 452.794 273.506 458.498 273.277C463.072 276.907 465.534 277.461 469.018 279.129C457.526 289.193 442.661 291.466 432.011 276.173C434.546 271.273 443.55 263.966 446.056 265.189Z" fill="#CCCCCC"/>
<path d="M469.981 261.284C472.128 267.866 479.423 269.373 484.885 269.189L496.737 278.398C485.136 284.638 472.705 290.086 457.758 272.396C460.04 268.19 464.888 263.804 469.981 261.284Z" fill="#CCCCCC"/>
<path d="M498.93 258.205C501.077 264.788 505.668 266.522 511.372 266.293C515.946 269.923 518.408 270.478 521.892 272.145C510.4 282.21 495.535 284.482 484.885 269.189C487.42 264.289 496.424 256.982 498.93 258.205Z" fill="#CCCCCC"/>
<path d="M525.819 254.052C529.204 235.736 499.449 230.594 488.854 222.604C478.259 214.613 476.024 207.576 475.961 204.953C475.897 202.33 489.9 204.729 490.545 204.237C485.803 199.796 473.518 185.296 473.515 167.301C473.513 157.189 476.984 165.007 488.959 162.057C485.914 157.451 481.701 136.298 485.456 126.701C488.702 118.403 493.89 124.03 501.405 129.575C500.627 113.937 496.438 91.8648 514.762 72.3076C550.794 110.417 527.311 133.712 529.067 144.017C529.777 144.971 536.161 138.577 540.319 137.568C553.833 172.196 546.497 168.755 547.124 180.496C551.649 178.125 555.206 177.734 558.193 178.505C565.277 213.111 548.004 229.719 533.08 239.94L530.609 253.617C530.609 253.617 522.434 272.369 525.819 254.052Z" fill="url(#paint6_radial_1764_1624)"/>
<path d="M525.819 254.053C536.037 232.543 507.626 138.672 513.728 134.367C517.363 156.468 524.083 172.09 529.047 188.294C531.112 208.205 536.067 221.331 525.819 254.053Z" fill="url(#paint7_linear_1764_1624)"/>
<path d="M533.387 254.179C544.752 230.67 580.785 255.858 598.654 258.1C616.523 260.341 624.671 254.969 626.885 252.17C629.099 249.37 612.158 237.494 611.871 236.289C620.576 236.347 645.579 233.229 660.305 213.578C668.58 202.535 658.471 207.48 648.076 191.86C655.101 189.983 676.913 171.24 680.748 156.871C684.065 144.447 673.912 145.222 661.338 143.499C674.964 127.225 697.502 107.453 693.903 67.1226C624.186 71.443 630.244 121.198 619.936 130.634C618.397 130.942 616.799 117.349 613.177 111.941C570.393 135.774 581.054 139.609 570.778 151.784C567.877 144.51 564.394 140.4 560.568 138.149C524.678 168.613 529.567 204.635 537.167 231.248L528.62 248.744C528.62 248.744 522.023 277.689 533.387 254.179Z" fill="url(#paint8_radial_1764_1624)"/>
<path d="M533.387 254.18C540.055 220.108 647.241 146.995 644.237 135.976C622.267 156.351 602.299 166.456 583.733 179.016C565.235 198.625 549.196 207.832 533.387 254.18Z" fill="url(#paint9_linear_1764_1624)"/>
<path d="M112.415 272.349C121.454 256.351 131.621 248.074 147.627 255.558L127.745 266.056C121.328 266.105 118.632 268.29 114.425 271.931L112.415 272.349Z" fill="url(#paint10_linear_1764_1624)"/>
<path d="M127.745 266.056C151.356 244.405 173.291 261.564 173.291 261.564C167.961 262.933 164.312 264.761 160.896 266.653C153.867 265.236 142.567 272.731 141.332 274.89C136.976 276.319 127.779 273.847 127.745 266.056Z" fill="url(#paint11_linear_1764_1624)"/>
<path d="M155.523 266.819C159.426 274.123 160.32 278.164 169.818 277.101L181.376 288.575C164.475 297.302 148.206 290.117 141.332 274.89C142.224 273.26 147.543 269.174 155.523 266.819Z" fill="url(#paint12_linear_1764_1624)"/>
<path d="M155.671 267.089C179.282 245.438 200.457 264.413 200.459 264.415C195.129 265.784 191.479 267.612 188.064 269.504C181.034 268.087 171.052 274.941 169.817 277.101C160.01 278.375 159.12 273.343 155.671 267.089Z" fill="url(#paint13_radial_1764_1624)"/>
<path d="M184.17 269.356C184.775 276.246 190.397 277.465 196.009 278.499L203.878 289.406C192.182 293.998 182.977 294.207 169.819 277.101C169.564 276.959 173.448 271.454 184.17 269.356Z" fill="url(#paint14_radial_1764_1624)"/>
<path d="M184.17 269.356C207.781 247.704 227.706 265.281 227.706 265.281C222.376 266.65 218.727 268.478 215.311 270.37C208.282 268.953 196.981 276.448 195.746 278.607C190.125 277.514 184.674 276.229 184.17 269.356Z" fill="url(#paint15_linear_1764_1624)"/>
<path d="M208.241 271.086C210.168 270.873 217.302 280.424 222.914 281.458L231.099 291.993C217.613 298.957 202.882 293.726 196.008 278.499C195.218 278.97 199.112 274.126 208.241 271.086Z" fill="url(#paint16_radial_1764_1624)"/>
<path d="M208.241 271.085C231.852 249.434 254.873 268.13 254.874 268.132C249.544 269.501 245.895 271.329 242.479 273.22C235.45 271.804 224.149 279.298 222.914 281.458C218.509 280.699 211.838 274.571 208.241 271.085Z" fill="url(#paint17_radial_1764_1624)"/>
<path d="M235.192 274.228C236.137 274.035 242.63 281.143 248.212 282.251L257.803 293.905C244.317 300.869 229.788 296.685 222.914 281.458C224.735 278.49 232.972 273.69 235.192 274.228Z" fill="url(#paint18_radial_1764_1624)"/>
<path d="M235.192 274.227C258.804 252.576 280.17 268.922 280.172 268.924C274.842 270.293 271.193 272.121 267.777 274.013C260.748 272.596 249.447 280.091 248.212 282.25C243.052 280.88 240.081 278.461 235.192 274.227Z" fill="url(#paint19_radial_1764_1624)"/>
<path d="M262.639 274.112C263.243 281.001 270.013 284.077 275.379 285.101L284.85 296.689C272.131 300.216 258.782 302.787 248.211 282.251C251.386 278.654 257.104 275.447 262.639 274.112Z" fill="url(#paint20_radial_1764_1624)"/>
<path d="M262.64 274.112C286.251 252.46 307.34 271.775 307.34 271.775C302.009 273.144 298.36 274.972 294.944 276.863C287.915 275.447 276.615 282.941 275.38 285.101C269.759 284.008 263.144 280.985 262.64 274.112Z" fill="url(#paint21_radial_1764_1624)"/>
<path d="M291.555 277.489C292.159 284.378 296.243 287.08 301.854 288.114C305.492 292.66 307.767 293.743 310.786 296.136C297.308 303.414 282.305 302.355 275.381 285.101C278.96 280.883 289.389 275.744 291.555 277.489Z" fill="url(#paint22_radial_1764_1624)"/>
<path d="M289.5 277.453C313.111 255.801 332.558 274.55 332.56 274.552C327.229 275.921 323.58 277.749 320.164 279.64C313.135 278.224 303.088 285.954 301.853 288.114C296.232 287.021 290.004 284.326 289.5 277.453Z" fill="url(#paint23_radial_1764_1624)"/>
<path d="M314.818 277.851C316.505 284.563 323.678 286.557 329.14 286.742L340.328 296.728C328.322 302.172 315.544 306.769 301.854 288.114C304.422 284.071 309.562 280.023 314.818 277.851Z" fill="url(#paint24_radial_1764_1624)"/>
<path d="M314.817 277.851C334.714 252.826 358.6 268.653 358.6 268.653C353.551 270.827 350.236 273.195 347.161 275.59C339.994 275.274 330.018 284.419 329.14 286.742C323.415 286.529 316.403 284.562 314.817 277.851Z" fill="url(#paint25_radial_1764_1624)"/>
<path d="M343 275.925C345.147 282.507 349.738 284.241 355.442 284.012C360.016 287.642 362.478 288.197 365.962 289.865C354.47 299.929 339.605 302.201 328.955 286.908C331.491 282.008 340.494 274.701 343 275.925Z" fill="url(#paint26_radial_1764_1624)"/>
<path d="M340.989 276.342C359.109 250.035 382.305 264.027 382.307 264.028C377.42 266.536 374.277 269.122 371.375 271.719C364.202 271.887 356.157 281.636 355.441 284.013C349.715 284.185 343.035 282.931 340.989 276.342Z" fill="url(#paint27_radial_1764_1624)"/>
<path d="M365.288 270.854C367.435 277.437 374.73 278.943 380.192 278.76L392.043 287.969C380.443 294.209 368.012 299.656 353.064 281.967C355.346 277.761 360.195 273.375 365.288 270.854Z" fill="url(#paint28_radial_1764_1624)"/>
<path d="M365.29 270.855C383.41 244.548 408.332 258.728 408.334 258.729C403.448 261.238 400.304 263.824 397.402 266.42C390.23 266.588 380.909 276.383 380.194 278.76C374.467 278.933 367.336 277.443 365.29 270.855Z" fill="url(#paint29_radial_1764_1624)"/>
<path d="M394.239 267.776C396.385 274.359 400.976 276.092 406.68 275.864C411.254 279.494 413.717 280.048 417.201 281.716C405.708 291.78 390.843 294.053 380.193 278.76C382.729 273.86 391.733 266.553 394.239 267.776Z" fill="url(#paint30_radial_1764_1624)"/>
<path d="M392.227 268.193C410.347 241.886 433.542 255.878 433.544 255.879C428.658 258.388 425.514 260.973 422.612 263.57C415.44 263.738 407.394 273.487 406.678 275.864C400.952 276.036 394.272 274.782 392.227 268.193Z" fill="url(#paint31_radial_1764_1624)"/>
<path d="M416.526 262.706C418.673 269.289 425.968 270.795 431.43 270.611L443.282 279.82C431.681 286.061 419.25 291.508 404.303 273.818C406.585 269.612 411.433 265.227 416.526 262.706Z" fill="url(#paint32_radial_1764_1624)"/>
<path d="M416.527 262.706C434.647 236.399 459.57 250.579 459.572 250.58C454.685 253.089 451.541 255.675 448.639 258.271C441.467 258.439 432.147 268.234 431.431 270.611C425.705 270.784 418.573 269.295 416.527 262.706Z" fill="url(#paint33_radial_1764_1624)"/>
<path d="M445.476 259.628C447.623 266.21 452.214 267.944 457.918 267.715C462.492 271.346 464.954 271.9 468.438 273.568C456.946 283.632 442.081 285.904 431.431 270.611C433.966 265.711 442.97 258.404 445.476 259.628Z" fill="url(#paint34_radial_1764_1624)"/>
<path d="M443.465 260.045C461.585 233.738 484.78 247.729 484.782 247.73C479.896 250.239 476.752 252.825 473.85 255.422C466.678 255.589 458.632 265.338 457.917 267.715C452.19 267.888 445.511 266.633 443.465 260.045Z" fill="url(#paint35_radial_1764_1624)"/>
<path d="M469.402 255.722C471.549 262.305 478.844 263.811 484.306 263.628L496.158 272.836C484.557 279.077 472.126 284.524 457.179 266.834C459.461 262.628 464.309 258.243 469.402 255.722Z" fill="url(#paint36_radial_1764_1624)"/>
<path d="M469.401 255.722C487.521 229.415 512.444 243.595 512.446 243.597C507.559 246.105 504.415 248.691 501.513 251.288C494.341 251.455 485.021 261.251 484.305 263.628C478.579 263.801 471.447 262.311 469.401 255.722Z" fill="url(#paint37_radial_1764_1624)"/>
<path d="M498.35 252.644C500.497 259.227 515.294 247.758 520.998 247.53C533.273 246.868 529.102 264.769 529.829 267.974C513.269 280.539 494.955 278.921 484.305 263.628C486.84 258.727 495.844 251.42 498.35 252.644Z" fill="url(#paint38_radial_1764_1624)"/>
<path d="M496.341 253.061C514.461 226.754 519.92 240.26 519.92 240.26C525.24 244.159 529.628 245.841 526.726 248.438C519.554 248.606 511.508 258.355 510.793 260.732C505.066 260.904 498.387 259.65 496.341 253.061Z" fill="url(#paint39_radial_1764_1624)"/>
<path d="M127.746 266.056C128.35 272.946 133.71 274.273 139.322 275.307L150.571 286.741C137.085 293.705 119.29 287.575 112.416 272.348C116.17 268.998 120.304 265.999 127.746 266.056Z" fill="url(#paint40_linear_1764_1624)"/>
<path d="M153.514 267.236C157.417 274.54 158.312 278.582 167.81 277.518L179.368 288.992C162.466 297.72 146.198 290.535 139.323 275.308C140.216 273.678 145.534 269.592 153.514 267.236Z" fill="url(#paint41_linear_1764_1624)"/>
<path d="M182.161 269.773C182.765 276.663 188.387 277.882 193.999 278.916L201.868 289.823C190.173 294.415 180.968 294.624 167.81 277.518C167.555 277.376 171.438 271.871 182.161 269.773Z" fill="url(#paint42_radial_1764_1624)"/>
<path d="M206.231 271.503C208.158 271.29 215.292 280.842 220.904 281.876L229.089 292.41C215.603 299.374 200.872 294.143 193.998 278.916C193.208 279.387 197.102 274.543 206.231 271.503Z" fill="url(#paint43_radial_1764_1624)"/>
<path d="M233.182 274.645C234.127 274.452 240.62 281.56 246.202 282.668L255.793 294.322C242.307 301.286 227.779 297.102 220.904 281.875C222.725 278.907 230.962 274.107 233.182 274.645Z" fill="url(#paint44_radial_1764_1624)"/>
<path d="M260.629 274.529C261.233 281.418 268.004 284.494 273.369 285.518L282.84 297.106C270.121 300.633 256.772 303.204 246.201 282.668C249.376 279.071 255.094 275.864 260.629 274.529Z" fill="url(#paint45_radial_1764_1624)"/>
<path d="M289.545 277.906C290.15 284.795 294.233 287.497 299.845 288.531C303.483 293.077 305.757 294.16 308.776 296.553C295.298 303.831 280.295 302.772 273.371 285.518C276.951 281.3 287.379 276.161 289.545 277.906Z" fill="url(#paint46_radial_1764_1624)"/>
<path d="M312.808 278.268C314.495 284.98 321.668 286.974 327.131 287.159L338.318 297.145C326.313 302.589 313.534 307.186 299.845 288.531C302.412 284.488 307.553 280.44 312.808 278.268Z" fill="url(#paint47_radial_1764_1624)"/>
<path d="M340.99 276.342C343.137 282.925 347.728 284.658 353.432 284.43C358.006 288.06 360.469 288.614 363.953 290.282C352.46 300.346 337.595 302.619 326.945 287.326C329.481 282.425 338.485 275.118 340.99 276.342Z" fill="url(#paint48_radial_1764_1624)"/>
<path d="M363.278 271.272C365.425 277.855 372.72 279.361 378.182 279.177L390.034 288.386C378.433 294.627 366.002 300.074 351.055 282.384C353.337 278.178 358.185 273.793 363.278 271.272Z" fill="url(#paint49_radial_1764_1624)"/>
<path d="M392.229 268.193C394.375 274.776 398.967 276.509 404.671 276.281C409.245 279.911 411.707 280.465 415.191 282.133C403.699 292.197 388.834 294.47 378.184 279.177C380.719 274.276 389.723 266.97 392.229 268.193Z" fill="url(#paint50_radial_1764_1624)"/>
<path d="M414.516 263.124C416.662 269.706 423.957 271.212 429.419 271.029L441.271 280.238C429.67 286.478 417.24 291.926 402.292 274.236C404.574 270.03 409.422 265.644 414.516 263.124Z" fill="url(#paint51_radial_1764_1624)"/>
<path d="M443.466 260.045C445.613 266.628 450.204 268.362 455.908 268.133C460.482 271.763 462.944 272.317 466.428 273.985C454.936 284.049 440.071 286.322 429.421 271.029C431.957 266.129 440.96 258.822 443.466 260.045Z" fill="url(#paint52_radial_1764_1624)"/>
<path d="M467.393 256.14C469.539 262.722 476.834 264.228 482.296 264.045L494.148 273.254C482.547 279.494 470.117 284.942 455.169 267.252C457.451 263.046 462.299 258.66 467.393 256.14Z" fill="url(#paint53_radial_1764_1624)"/>
<path opacity="0.97" d="M666.55 693.864C686.446 693.864 702.576 677.23 702.576 656.712C702.576 636.193 686.446 619.56 666.55 619.56C646.653 619.56 630.523 636.193 630.523 656.712C630.523 677.23 646.653 693.864 666.55 693.864Z" fill="#BEDCD7"/>
<path opacity="0.97" d="M54.2632 603.116C67.0539 603.116 77.4228 592.423 77.4228 579.232C77.4228 566.042 67.0539 555.349 54.2632 555.349C41.4725 555.349 31.1035 566.042 31.1035 579.232C31.1035 592.423 41.4725 603.116 54.2632 603.116Z" fill="#BEDCD7"/>
<path opacity="0.97" d="M385.205 78.4834C395.154 78.4834 403.219 70.1667 403.219 59.9075C403.219 49.6483 395.154 41.3315 385.205 41.3315C375.257 41.3315 367.192 49.6483 367.192 59.9075C367.192 70.1667 375.257 78.4834 385.205 78.4834Z" fill="#BEDCD7"/>
<path opacity="0.97" d="M270.438 126.95C283.229 126.95 293.598 116.257 293.598 103.066C293.598 89.876 283.229 79.1831 270.438 79.1831C257.647 79.1831 247.278 89.876 247.278 103.066C247.278 116.257 257.647 126.95 270.438 126.95Z" fill="#BEDCD7"/>
<path opacity="0.97" d="M206.033 104.814C208.093 104.814 209.763 103.092 209.763 100.968C209.763 98.8435 208.093 97.1216 206.033 97.1216C203.973 97.1216 202.304 98.8435 202.304 100.968C202.304 103.092 203.973 104.814 206.033 104.814Z" fill="#BEDCD7"/>
<path opacity="0.97" d="M633.786 597.093C638.358 597.093 642.063 593.272 642.063 588.557C642.063 583.843 638.358 580.021 633.786 580.021C629.215 580.021 625.509 583.843 625.509 588.557C625.509 593.272 629.215 597.093 633.786 597.093Z" fill="#BEDCD7"/>
<path opacity="0.97" d="M609.938 640.126C619.176 640.126 626.665 632.403 626.665 622.877C626.665 613.351 619.176 605.628 609.938 605.628C600.701 605.628 593.212 613.351 593.212 622.877C593.212 632.403 600.701 640.126 609.938 640.126Z" fill="#BEDCD7"/>
<path opacity="0.97" d="M53.3538 539.316C59.6124 539.316 64.6861 534.084 64.6861 527.63C64.6861 521.176 59.6124 515.943 53.3538 515.943C47.0951 515.943 42.0215 521.176 42.0215 527.63C42.0215 534.084 47.0951 539.316 53.3538 539.316Z" fill="#BEDCD7"/>
<path opacity="0.97" d="M326.524 104.754C331.95 104.754 336.349 100.218 336.349 94.6221C336.349 89.0264 331.95 84.4902 326.524 84.4902C321.098 84.4902 316.699 89.0264 316.699 94.6221C316.699 100.218 321.098 104.754 326.524 104.754Z" fill="#BEDCD7"/>
<path opacity="0.97" d="M219.622 123.988C225.048 123.988 229.447 119.452 229.447 113.856C229.447 108.26 225.048 103.724 219.622 103.724C214.196 103.724 209.797 108.26 209.797 113.856C209.797 119.452 214.196 123.988 219.622 123.988Z" fill="#BEDCD7"/>
<defs>
<radialGradient id="paint0_radial_1764_1624" cx="0" cy="0" r="1" gradientUnits="userSpaceOnUse" gradientTransform="translate(336.8 613.587) rotate(-0.249577) scale(187.057 119.452)">
<stop/>
<stop offset="1" stop-opacity="0"/>
</radialGradient>
<linearGradient id="paint1_linear_1764_1624" x1="303.639" y1="226.451" x2="436.112" y2="269.091" gradientUnits="userSpaceOnUse">
<stop stop-color="#C48A65"/>
<stop offset="1" stop-color="#A05A2C"/>
</linearGradient>
<linearGradient id="paint2_linear_1764_1624" x1="430.987" y1="321.685" x2="542.689" y2="343.343" gradientUnits="userSpaceOnUse">
<stop stop-color="#375B6B"/>
<stop offset="1" stop-color="#375B6B" stop-opacity="0"/>
</linearGradient>
<linearGradient id="paint3_linear_1764_1624" x1="335.665" y1="351.546" x2="590.267" y2="646.869" gradientUnits="userSpaceOnUse">
<stop stop-color="white"/>
<stop offset="1" stop-color="#999999"/>
</linearGradient>
<linearGradient id="paint4_linear_1764_1624" x1="194.985" y1="204.522" x2="206.224" y2="221.363" gradientUnits="userSpaceOnUse">
<stop stop-color="#C48A65"/>
<stop offset="1" stop-color="#A56134"/>
</linearGradient>
<linearGradient id="paint5_linear_1764_1624" x1="240.429" y1="204.283" x2="228.914" y2="195.663" gradientUnits="userSpaceOnUse">
<stop stop-color="#A66235"/>
<stop offset="1" stop-color="#C48A65"/>
</linearGradient>
<radialGradient id="paint6_radial_1764_1624" cx="0" cy="0" r="1" gradientUnits="userSpaceOnUse" gradientTransform="translate(518.796 113.547) rotate(87.1385) scale(140.681 114.01)">
<stop stop-color="#75D229"/>
<stop offset="1" stop-color="#008000"/>
</radialGradient>
<linearGradient id="paint7_linear_1764_1624" x1="533.08" y1="239.94" x2="525.094" y2="155.203" gradientUnits="userSpaceOnUse">
<stop stop-color="#70CF27"/>
<stop offset="1" stop-color="#70CF27" stop-opacity="0"/>
</linearGradient>
<radialGradient id="paint8_radial_1764_1624" cx="0" cy="0" r="1" gradientUnits="userSpaceOnUse" gradientTransform="translate(655.85 107.988) rotate(129.952) scale(190.707 169.484)">
<stop stop-color="#75D229"/>
<stop offset="1" stop-color="#008000"/>
</radialGradient>
<linearGradient id="paint9_linear_1764_1624" x1="513.382" y1="265.876" x2="621.554" y2="176.705" gradientUnits="userSpaceOnUse">
<stop stop-color="#70CF27"/>
<stop offset="1" stop-color="#70CF27" stop-opacity="0"/>
</linearGradient>
<linearGradient id="paint10_linear_1764_1624" x1="179.66" y1="269.164" x2="127.219" y2="258.636" gradientUnits="userSpaceOnUse">
<stop stop-color="#008000"/>
<stop offset="1" stop-color="#71CC26"/>
</linearGradient>
<linearGradient id="paint11_linear_1764_1624" x1="140.501" y1="258.812" x2="192.736" y2="248.003" gradientUnits="userSpaceOnUse">
<stop stop-color="#71CC26"/>
<stop offset="1" stop-color="#008000"/>
</linearGradient>
<linearGradient id="paint12_linear_1764_1624" x1="173.292" y1="261.564" x2="150.164" y2="279.709" gradientUnits="userSpaceOnUse">
<stop stop-color="#008000"/>
<stop offset="1" stop-color="#71CC26"/>
</linearGradient>
<radialGradient id="paint13_radial_1764_1624" cx="0" cy="0" r="1" gradientUnits="userSpaceOnUse" gradientTransform="translate(178.065 267.01) rotate(-12.7489) scale(44.2214 60.2878)">
<stop stop-color="#71CC26"/>
<stop offset="1" stop-color="#008000"/>
</radialGradient>
<radialGradient id="paint14_radial_1764_1624" cx="0" cy="0" r="1" gradientUnits="userSpaceOnUse" gradientTransform="translate(186.068 284.67) rotate(41.8931) scale(41.8529 18.5851)">
<stop stop-color="#71CC26"/>
<stop offset="1" stop-color="#008000"/>
</radialGradient>
<linearGradient id="paint15_linear_1764_1624" x1="161.274" y1="282.434" x2="209.385" y2="267.842" gradientUnits="userSpaceOnUse">
<stop stop-color="#008000"/>
<stop offset="1" stop-color="#71CC26"/>
</linearGradient>
<radialGradient id="paint16_radial_1764_1624" cx="0" cy="0" r="1" gradientUnits="userSpaceOnUse" gradientTransform="translate(213.503 283.055) rotate(127.634) scale(44.4922 31.637)">
<stop stop-color="#71CC26"/>
<stop offset="1" stop-color="#008000"/>
</radialGradient>
<radialGradient id="paint17_radial_1764_1624" cx="0" cy="0" r="1" gradientUnits="userSpaceOnUse" gradientTransform="translate(231.558 271.045) rotate(121.781) scale(53.3557 41.9915)">
<stop stop-color="#71CC26"/>
<stop offset="1" stop-color="#008000"/>
</radialGradient>
<radialGradient id="paint18_radial_1764_1624" cx="0" cy="0" r="1" gradientUnits="userSpaceOnUse" gradientTransform="translate(240.358 285.679) rotate(122.293) scale(53.1852 31.4042)">
<stop stop-color="#71CC26"/>
<stop offset="1" stop-color="#008000"/>
</radialGradient>
<radialGradient id="paint19_radial_1764_1624" cx="0" cy="0" r="1" gradientUnits="userSpaceOnUse" gradientTransform="translate(257.682 272.628) rotate(130.183) scale(54.506 31.2211)">
<stop stop-color="#71CC26"/>
<stop offset="1" stop-color="#008000"/>
</radialGradient>
<radialGradient id="paint20_radial_1764_1624" cx="0" cy="0" r="1" gradientUnits="userSpaceOnUse" gradientTransform="translate(266.53 286.602) rotate(118.025) scale(39.6408 42.0914)">
<stop stop-color="#71CC26"/>
<stop offset="1" stop-color="#008000"/>
</radialGradient>
<radialGradient id="paint21_radial_1764_1624" cx="0" cy="0" r="1" gradientUnits="userSpaceOnUse" gradientTransform="translate(285.156 274.495) rotate(97.9973) scale(30.2078 42.874)">
<stop stop-color="#71CC26"/>
<stop offset="1" stop-color="#008000"/>
</radialGradient>
<radialGradient id="paint22_radial_1764_1624" cx="0" cy="0" r="1" gradientUnits="userSpaceOnUse" gradientTransform="translate(293.084 288.766) rotate(176.225) scale(38.7558 36.1189)">
<stop stop-color="#71CC26"/>
<stop offset="1" stop-color="#008000"/>
</radialGradient>
<radialGradient id="paint23_radial_1764_1624" cx="0" cy="0" r="1" gradientUnits="userSpaceOnUse" gradientTransform="translate(306.978 277.17) rotate(130.848) scale(50.9778 25.5317)">
<stop stop-color="#71CC26"/>
<stop offset="1" stop-color="#008000"/>
</radialGradient>
<radialGradient id="paint24_radial_1764_1624" cx="0" cy="0" r="1" gradientUnits="userSpaceOnUse" gradientTransform="translate(320.638 289.589) rotate(108.962) scale(39.5822 42.1538)">
<stop stop-color="#71CC26"/>
<stop offset="1" stop-color="#008000"/>
</radialGradient>
<radialGradient id="paint25_radial_1764_1624" cx="0" cy="0" r="1" gradientUnits="userSpaceOnUse" gradientTransform="translate(337.119 274.759) rotate(88.8987) scale(30.2004 42.8844)">
<stop stop-color="#71CC26"/>
<stop offset="1" stop-color="#008000"/>
</radialGradient>
<radialGradient id="paint26_radial_1764_1624" cx="0" cy="0" r="1" gradientUnits="userSpaceOnUse" gradientTransform="translate(347.04 286.581) rotate(163.483) scale(38.717 36.1551)">
<stop stop-color="#71CC26"/>
<stop offset="1" stop-color="#008000"/>
</radialGradient>
<radialGradient id="paint27_radial_1764_1624" cx="0" cy="0" r="1" gradientUnits="userSpaceOnUse" gradientTransform="translate(357.962 272.216) rotate(117.89) scale(50.8405 25.6006)">
<stop stop-color="#71CC26"/>
<stop offset="1" stop-color="#008000"/>
</radialGradient>
<radialGradient id="paint28_radial_1764_1624" cx="0" cy="0" r="1" gradientUnits="userSpaceOnUse" gradientTransform="translate(371.906 282.173) rotate(105.006) scale(39.5626 42.1746)">
<stop stop-color="#71CC26"/>
<stop offset="1" stop-color="#008000"/>
</radialGradient>
<radialGradient id="paint29_radial_1764_1624" cx="0" cy="0" r="1" gradientUnits="userSpaceOnUse" gradientTransform="translate(387.325 266.268) rotate(84.9344) scale(30.2033 42.8803)">
<stop stop-color="#71CC26"/>
<stop offset="1" stop-color="#008000"/>
</radialGradient>
<radialGradient id="paint30_radial_1764_1624" cx="0" cy="0" r="1" gradientUnits="userSpaceOnUse" gradientTransform="translate(398.278 278.432) rotate(163.483) scale(38.717 36.1552)">
<stop stop-color="#71CC26"/>
<stop offset="1" stop-color="#008000"/>
</radialGradient>
<radialGradient id="paint31_radial_1764_1624" cx="0" cy="0" r="1" gradientUnits="userSpaceOnUse" gradientTransform="translate(409.199 264.067) rotate(117.89) scale(50.8405 25.6006)">
<stop stop-color="#71CC26"/>
<stop offset="1" stop-color="#008000"/>
</radialGradient>
<radialGradient id="paint32_radial_1764_1624" cx="0" cy="0" r="1" gradientUnits="userSpaceOnUse" gradientTransform="translate(423.144 274.024) rotate(105.006) scale(39.5626 42.1746)">
<stop stop-color="#71CC26"/>
<stop offset="1" stop-color="#008000"/>
</radialGradient>
<radialGradient id="paint33_radial_1764_1624" cx="0" cy="0" r="1" gradientUnits="userSpaceOnUse" gradientTransform="translate(438.563 258.119) rotate(84.9344) scale(30.2033 42.8803)">
<stop stop-color="#71CC26"/>
<stop offset="1" stop-color="#008000"/>
</radialGradient>
<radialGradient id="paint34_radial_1764_1624" cx="0" cy="0" r="1" gradientUnits="userSpaceOnUse" gradientTransform="translate(449.515 270.284) rotate(163.483) scale(38.717 36.1552)">
<stop stop-color="#71CC26"/>
<stop offset="1" stop-color="#008000"/>
</radialGradient>
<radialGradient id="paint35_radial_1764_1624" cx="0" cy="0" r="1" gradientUnits="userSpaceOnUse" gradientTransform="translate(460.438 255.919) rotate(117.89) scale(50.8405 25.6006)">
<stop stop-color="#71CC26"/>
<stop offset="1" stop-color="#008000"/>
</radialGradient>
<radialGradient id="paint36_radial_1764_1624" cx="0" cy="0" r="1" gradientUnits="userSpaceOnUse" gradientTransform="translate(476.02 267.04) rotate(105.006) scale(39.5626 42.1746)">
<stop stop-color="#71CC26"/>
<stop offset="1" stop-color="#008000"/>
</radialGradient>
<radialGradient id="paint37_radial_1764_1624" cx="0" cy="0" r="1" gradientUnits="userSpaceOnUse" gradientTransform="translate(491.437 251.135) rotate(84.9344) scale(30.2033 42.8803)">
<stop stop-color="#71CC26"/>
<stop offset="1" stop-color="#008000"/>
</radialGradient>
<radialGradient id="paint38_radial_1764_1624" cx="0" cy="0" r="1" gradientUnits="userSpaceOnUse" gradientTransform="translate(502.389 263.3) rotate(163.483) scale(38.7169 36.1551)">
<stop stop-color="#71CC26"/>
<stop offset="1" stop-color="#008000"/>
</radialGradient>
<radialGradient id="paint39_radial_1764_1624" cx="0" cy="0" r="1" gradientUnits="userSpaceOnUse" gradientTransform="translate(513.314 248.935) rotate(117.89) scale(50.8405 25.6006)">
<stop stop-color="#71CC26"/>
<stop offset="1" stop-color="#008000"/>
</radialGradient>
<linearGradient id="paint40_linear_1764_1624" x1="145.233" y1="261.468" x2="124.87" y2="279.473" gradientUnits="userSpaceOnUse">
<stop stop-color="#008000"/>
<stop offset="1" stop-color="#71CC26"/>
</linearGradient>
<linearGradient id="paint41_linear_1764_1624" x1="171.283" y1="261.981" x2="148.155" y2="280.126" gradientUnits="userSpaceOnUse">
<stop stop-color="#008000"/>
<stop offset="1" stop-color="#71CC26"/>
</linearGradient>
<radialGradient id="paint42_radial_1764_1624" cx="0" cy="0" r="1" gradientUnits="userSpaceOnUse" gradientTransform="translate(184.059 285.087) rotate(41.8932) scale(41.8529 18.5851)">
<stop stop-color="#71CC26"/>
<stop offset="1" stop-color="#008000"/>
</radialGradient>
<radialGradient id="paint43_radial_1764_1624" cx="0" cy="0" r="1" gradientUnits="userSpaceOnUse" gradientTransform="translate(211.494 283.473) rotate(127.634) scale(44.4922 31.637)">
<stop stop-color="#71CC26"/>
<stop offset="1" stop-color="#008000"/>
</radialGradient>
<radialGradient id="paint44_radial_1764_1624" cx="0" cy="0" r="1" gradientUnits="userSpaceOnUse" gradientTransform="translate(238.349 286.096) rotate(122.293) scale(53.1852 31.4042)">
<stop stop-color="#71CC26"/>
<stop offset="1" stop-color="#008000"/>
</radialGradient>
<radialGradient id="paint45_radial_1764_1624" cx="0" cy="0" r="1" gradientUnits="userSpaceOnUse" gradientTransform="translate(264.521 287.019) rotate(118.025) scale(39.6408 42.0914)">
<stop stop-color="#71CC26"/>
<stop offset="1" stop-color="#008000"/>
</radialGradient>
<radialGradient id="paint46_radial_1764_1624" cx="0" cy="0" r="1" gradientUnits="userSpaceOnUse" gradientTransform="translate(291.074 289.183) rotate(176.225) scale(38.7558 36.1189)">
<stop stop-color="#71CC26"/>
<stop offset="1" stop-color="#008000"/>
</radialGradient>
<radialGradient id="paint47_radial_1764_1624" cx="0" cy="0" r="1" gradientUnits="userSpaceOnUse" gradientTransform="translate(318.628 290.006) rotate(108.962) scale(39.5821 42.1537)">
<stop stop-color="#71CC26"/>
<stop offset="1" stop-color="#008000"/>
</radialGradient>
<radialGradient id="paint48_radial_1764_1624" cx="0" cy="0" r="1" gradientUnits="userSpaceOnUse" gradientTransform="translate(345.03 286.998) rotate(163.483) scale(38.717 36.1552)">
<stop stop-color="#71CC26"/>
<stop offset="1" stop-color="#008000"/>
</radialGradient>
<radialGradient id="paint49_radial_1764_1624" cx="0" cy="0" r="1" gradientUnits="userSpaceOnUse" gradientTransform="translate(369.896 282.59) rotate(105.006) scale(39.5626 42.1746)">
<stop stop-color="#71CC26"/>
<stop offset="1" stop-color="#008000"/>
</radialGradient>
<radialGradient id="paint50_radial_1764_1624" cx="0" cy="0" r="1" gradientUnits="userSpaceOnUse" gradientTransform="translate(396.268 278.849) rotate(163.483) scale(38.717 36.1552)">
<stop stop-color="#71CC26"/>
<stop offset="1" stop-color="#008000"/>
</radialGradient>
<radialGradient id="paint51_radial_1764_1624" cx="0" cy="0" r="1" gradientUnits="userSpaceOnUse" gradientTransform="translate(421.133 274.442) rotate(105.006) scale(39.5626 42.1746)">
<stop stop-color="#71CC26"/>
<stop offset="1" stop-color="#008000"/>
</radialGradient>
<radialGradient id="paint52_radial_1764_1624" cx="0" cy="0" r="1" gradientUnits="userSpaceOnUse" gradientTransform="translate(447.506 270.701) rotate(163.483) scale(38.717 36.1552)">
<stop stop-color="#71CC26"/>
<stop offset="1" stop-color="#008000"/>
</radialGradient>
<radialGradient id="paint53_radial_1764_1624" cx="0" cy="0" r="1" gradientUnits="userSpaceOnUse" gradientTransform="translate(474.01 267.458) rotate(105.006) scale(39.5626 42.1746)">
<stop stop-color="#71CC26"/>
<stop offset="1" stop-color="#008000"/>
</radialGradient>
</defs>
</svg>
