<svg width="58" height="64" viewBox="0 0 58 64" fill="none" xmlns="http://www.w3.org/2000/svg">
<path d="M24.815 1.10305C27.3972 -0.367682 30.5757 -0.367683 33.1532 1.10305L53.6806 12.8161C56.2581 14.2868 57.843 16.9971 57.8384 19.9386C57.8294 25.5409 57.8141 35.1382 57.801 43.3748C57.7963 46.3163 56.2027 49.0319 53.6205 50.5026L33.0558 62.2157C30.4736 63.6864 27.2951 63.6864 24.7176 62.2157L4.19014 50.5026C1.61264 49.0319 0.0277239 46.3139 0.0324135 43.3724L0.0697619 19.9463C0.0744515 17.0049 1.66803 14.2868 4.25022 12.8161L24.815 1.10305Z" fill="#007163"/>
<path fill-rule="evenodd" clip-rule="evenodd" d="M31.473 45.2187C30.8234 42.6828 29.4588 41.767 24.1185 38.0337C18.7782 34.3004 18.5591 22.6777 18.5591 22.6777C18.5591 22.6777 21.879 26.8337 25.3224 28.1017C28.7657 29.3696 31.3143 32.962 31.5484 35.1457L31.5056 26.4111C31.5056 26.4111 31.8666 23.2413 34.2453 21.9029C36.6236 20.5645 38.765 18.7331 39.1237 17.2538C39.1237 17.2538 40.1243 23.1004 37.8625 25.918C35.6007 28.7356 32.5106 29.44 32.211 31.0601L32.1259 48.8815L31.5316 48.8143L31.473 45.2187Z" fill="#FFFEFB"/>
<path fill-rule="evenodd" clip-rule="evenodd" d="M29.5744 23.6647C29.5744 23.6647 30.1688 23.383 28.212 21.2697C26.255 19.1565 28.0446 14.437 28.0446 14.437C28.0446 14.437 28.4582 15.8459 29.407 16.9025C30.3557 17.9591 31.4796 20.9176 29.5744 23.6647Z" fill="#FFFEFB"/>
</svg>
