<svg width="245" height="268" viewBox="0 0 245 268" fill="none" xmlns="http://www.w3.org/2000/svg">
<path d="M104.681 4.65328C115.574 -1.55109 128.983 -1.5511 139.856 4.65328L226.453 54.0656C237.326 60.27 244.012 71.7035 243.992 84.1123C243.955 107.746 243.89 148.233 243.835 182.98C243.815 195.388 237.092 206.844 226.199 213.049L139.445 262.461C128.552 268.665 115.143 268.665 104.27 262.461L17.6737 213.049C6.80036 206.844 0.114288 195.378 0.134072 182.97L0.291628 84.1449C0.311412 71.7361 7.03404 60.27 17.9272 54.0656L104.681 4.65328Z" fill="white"/>
<path fill-rule="evenodd" clip-rule="evenodd" d="M132.768 190.758C130.028 180.06 124.271 176.197 101.743 160.448C79.2144 144.699 78.2901 95.6675 78.2901 95.6675C78.2901 95.6675 92.2956 113.2 106.822 118.549C121.348 123.898 132.099 139.052 133.087 148.264L132.906 111.417C132.906 111.417 134.429 98.045 144.464 92.3987C154.497 86.7528 163.53 79.027 165.043 72.7865C165.043 72.7865 169.264 97.4507 159.723 109.337C150.181 121.223 137.145 124.194 135.882 131.029L135.523 206.21L133.015 205.926L132.768 190.758Z" fill="#007163"/>
<path fill-rule="evenodd" clip-rule="evenodd" d="M124.759 99.8313C124.759 99.8313 127.267 98.6428 119.011 89.7278C110.756 80.8132 118.305 60.9036 118.305 60.9036C118.305 60.9036 120.05 66.847 124.053 71.3043C128.055 75.7616 132.796 88.2422 124.759 99.8313Z" fill="#FFFEFB"/>
</svg>
