<svg width="299" height="108" viewBox="0 0 299 108" fill="none" xmlns="http://www.w3.org/2000/svg">
<path d="M17.8778 91.8374V49.7806H1.83174V41.5743H43.5222V49.7806H27.4029V91.8374H17.8778ZM57.5213 92.7166C53.4182 92.7166 49.999 92.0084 47.2636 90.5918C44.5282 89.1264 42.4766 86.9039 41.1089 83.9243C39.7412 80.9446 39.0574 77.159 39.0574 72.5675C39.0574 67.927 39.7412 64.1414 41.1089 61.2106C42.4766 58.231 44.5282 56.0329 47.2636 54.6164C49.999 53.151 53.4182 52.4183 57.5213 52.4183C61.2337 52.4183 64.3354 53.1265 66.8266 54.5431C69.3666 55.9108 71.2716 58.0356 72.5417 60.9176C73.8117 63.7995 74.4467 67.5363 74.4467 72.1278V74.7655H48.2161C48.3138 77.159 48.6801 79.1862 49.3151 80.8469C49.9501 82.4589 50.9271 83.68 52.2459 84.5104C53.6136 85.292 55.3965 85.6827 57.5946 85.6827C58.7181 85.6827 59.7683 85.5362 60.7452 85.2431C61.7221 84.95 62.577 84.5104 63.3097 83.9243C64.0424 83.2893 64.6041 82.5077 64.9949 81.5796C65.4345 80.6516 65.6543 79.5769 65.6543 78.3558H74.4467C74.4467 80.7981 74.007 82.9229 73.1278 84.7302C72.2974 86.5376 71.1007 88.0274 69.5376 89.1997C68.0233 90.372 66.2405 91.2512 64.1889 91.8374C62.1373 92.4236 59.9148 92.7166 57.5213 92.7166ZM48.3626 68.4643H65.1414C65.1414 66.8524 64.946 65.4847 64.5552 64.3612C64.2133 63.2378 63.7004 62.3097 63.0166 61.577C62.3816 60.8443 61.6 60.3314 60.6719 60.0383C59.7439 59.6964 58.6937 59.5254 57.5213 59.5254C55.6163 59.5254 54.0044 59.8429 52.6855 60.4779C51.4155 61.1129 50.4386 62.0899 49.7548 63.4087C49.0709 64.7276 48.6069 66.4128 48.3626 68.4643ZM88.6278 92.7166C87.5532 92.7166 86.3076 92.5701 84.891 92.277C83.5233 92.0328 82.1801 91.5443 80.8612 90.8116C79.5912 90.0789 78.541 89.0043 77.7106 87.5878C76.8802 86.1224 76.465 84.2173 76.465 81.8727C76.465 79.235 77.0512 77.0613 78.2235 75.3517C79.3958 73.5932 81.0322 72.2255 83.1326 71.2486C85.2818 70.2228 87.8218 69.5145 90.7526 69.1238C93.7323 68.6842 96.9806 68.4643 100.498 68.4643V65.3137C100.498 64.1903 100.327 63.1889 99.9846 62.3097C99.6427 61.4304 99.0077 60.7466 98.0796 60.2581C97.2004 59.7208 95.8571 59.4522 94.0498 59.4522C92.2424 59.4522 90.8259 59.672 89.8001 60.1116C88.7743 60.5512 88.0661 61.0885 87.6753 61.7235C87.2845 62.3585 87.0891 63.018 87.0891 63.7018V64.7276H78.4433C78.3945 64.4834 78.37 64.2391 78.37 63.9949C78.37 63.7507 78.37 63.4576 78.37 63.1157C78.37 60.9176 79.0295 59.0125 80.3483 57.4006C81.6672 55.7887 83.4989 54.5675 85.8435 53.7371C88.1882 52.8579 90.8992 52.4183 93.9765 52.4183C97.4934 52.4183 100.375 52.9067 102.622 53.8837C104.918 54.8606 106.628 56.2527 107.751 58.06C108.875 59.8674 109.436 62.0655 109.436 64.6543V82.8252C109.436 83.7533 109.705 84.4127 110.242 84.8035C110.78 85.1943 111.366 85.3897 112.001 85.3897H114.345V91.5443C113.857 91.7397 113.149 91.9595 112.221 92.2038C111.293 92.4968 110.145 92.6434 108.777 92.6434C107.507 92.6434 106.359 92.4236 105.333 91.9839C104.356 91.5932 103.526 91.007 102.842 90.2255C102.158 89.4439 101.67 88.5158 101.377 87.4412H100.937C100.107 88.467 99.1054 89.3951 97.9331 90.2255C96.8096 91.007 95.4663 91.6176 93.9032 92.0572C92.389 92.4968 90.6305 92.7166 88.6278 92.7166ZM91.3388 85.3897C92.8042 85.3897 94.0986 85.1699 95.2221 84.7302C96.3944 84.2906 97.3469 83.68 98.0796 82.8985C98.8611 82.1169 99.4473 81.1644 99.8381 80.041C100.278 78.9175 100.498 77.6963 100.498 76.3775V74.619C97.8109 74.619 95.3198 74.79 93.024 75.1319C90.777 75.4738 88.9697 76.1088 87.602 77.0369C86.2832 77.965 85.6237 79.2838 85.6237 80.9935C85.6237 81.8727 85.8191 82.6543 86.2099 83.3381C86.6495 83.9731 87.2845 84.486 88.1149 84.8768C88.9941 85.2187 90.0688 85.3897 91.3388 85.3897ZM116.153 91.8374V38.8634H125.092V91.8374H116.153ZM131.316 47.3626V38.8634H140.255V47.3626H131.316ZM131.316 91.8374V53.2975H140.255V91.8374H131.316ZM146.479 91.8374V53.2975H153.953L154.686 58.4264H155.199C156.078 57.2541 157.104 56.2283 158.276 55.3491C159.497 54.421 160.865 53.7127 162.379 53.2242C163.942 52.6869 165.652 52.4183 167.508 52.4183C169.95 52.4183 172.099 52.8579 173.956 53.7371C175.861 54.6164 177.35 56.0329 178.425 57.9868C179.5 59.9406 180.037 62.5539 180.037 65.8266V91.8374H171.025V67.4386C171.025 66.0709 170.854 64.9474 170.512 64.0682C170.219 63.1401 169.755 62.4074 169.12 61.8701C168.534 61.2839 167.801 60.8687 166.922 60.6245C166.042 60.3802 165.066 60.2581 163.991 60.2581C162.379 60.2581 160.914 60.6489 159.595 61.4304C158.325 62.212 157.299 63.2866 156.517 64.6543C155.785 66.022 155.418 67.6095 155.418 69.4169V91.8374H146.479ZM198.207 92.7166C194.494 92.7166 191.466 91.7153 189.121 89.7126C186.825 87.661 185.678 84.1929 185.678 79.3083V53.2975H194.617V77.6963C194.617 79.064 194.763 80.2119 195.056 81.14C195.398 82.0193 195.862 82.752 196.448 83.3381C197.083 83.8754 197.84 84.2662 198.72 84.5104C199.599 84.7547 200.576 84.8768 201.65 84.8768C203.262 84.8768 204.703 84.486 205.973 83.7045C207.292 82.9229 208.318 81.8483 209.051 80.4806C209.832 79.064 210.223 77.4765 210.223 75.7181V53.2975H219.162V91.8374H211.762L211.029 86.7085H210.516C209.637 87.8808 208.587 88.931 207.365 89.8591C206.193 90.7384 204.825 91.4222 203.262 91.9107C201.748 92.448 200.063 92.7166 198.207 92.7166ZM221.361 91.8374L235.135 71.9813L222.313 53.2975H233.157L240.777 65.2405H241.217L248.983 53.2975H259.168L246.272 71.7615L259.9 91.8374H249.203L240.631 78.5023H240.191L231.545 91.8374H221.361Z" fill="white"/>
<path fill-rule="evenodd" clip-rule="evenodd" d="M249.657 66.4574C251.517 61.488 250.32 58.3903 245.81 46.0186C241.3 33.6471 254.384 14.0514 254.384 14.0514C254.384 14.0514 255.065 24.7966 259.291 30.8777C263.517 36.9587 263.575 45.8763 261.436 49.7805L271.47 35.1947C271.47 35.1947 275.734 30.3357 281.215 30.8513C286.695 31.3666 292.354 30.7882 294.659 28.74C294.659 28.74 289.549 39.624 282.55 41.7048C275.551 43.7857 269.627 41.3943 267.258 43.7453L246.499 73.3063L245.594 72.5089L249.657 66.4574Z" fill="white"/>
<path fill-rule="evenodd" clip-rule="evenodd" d="M271.454 28.3969C271.454 28.3969 272.763 28.6136 271.972 22.8399C271.182 17.0663 279.6 11.2756 279.6 11.2756C279.6 11.2756 278.654 14.0973 279.001 16.9498C279.347 19.8023 277.782 26.0221 271.454 28.3969Z" fill="white"/>
</svg>
