<svg width="89" height="89" viewBox="0 0 89 89" fill="none" xmlns="http://www.w3.org/2000/svg">
<g clip-path="url(#clip0_1764_1467)">
<path d="M38.7357 0.753105C30.8675 1.773 23.8639 4.64255 17.3445 9.50002C15.1829 11.1077 10.6521 15.6367 9.00932 17.8321C4.42672 23.9687 1.60798 30.6067 0.397483 38.0917C-0.0348381 40.8057 -0.0348381 48.6883 0.397483 51.4022C1.88467 60.6332 5.82744 68.6541 12.1566 75.2747C19.558 83.019 28.8269 87.5999 39.5831 88.8446C42.2635 89.1384 48.8002 88.9656 51.446 88.4988C60.6631 86.9258 68.4276 83.0018 75.1199 76.5539C82.4693 69.4838 86.9136 60.5294 88.297 50.1058C88.6775 47.0979 88.5564 40.5464 88.0376 37.5558C86.7926 30.2783 84.043 23.865 79.6506 17.9876C78.0251 15.8268 73.7019 11.4188 71.5749 9.79389C65.4705 5.07471 58.7263 2.17059 51.0655 0.908684C48.7137 0.528381 41.1913 0.424667 38.7357 0.753105ZM65.4532 27.6853C66.5599 28.7916 66.681 27.9792 62.5307 47.5647C60.4728 57.2796 58.6917 65.4561 58.5879 65.7499C58.0345 67.2193 57.0834 67.7552 55.7692 67.3921C55.2504 67.2539 53.279 65.9055 49.44 63.0533C46.3619 60.7887 43.7852 58.9218 43.6988 58.9218C43.6296 58.9218 42.2116 60.2356 40.5342 61.8605C38.1305 64.1769 37.3696 64.8165 36.9027 64.9029C36.5741 64.9548 36.2456 64.9721 36.1937 64.9029C36.0726 64.7992 36.5914 56.2424 36.8162 54.4965L36.92 53.6322L47.2092 44.3494C53.0196 39.0943 57.5158 34.911 57.5504 34.7209C57.6195 34.3406 57.3428 34.2887 56.6511 34.548C56.409 34.6344 50.4776 38.3164 43.4567 42.7417L30.6946 50.7799L26.0255 49.3106C23.4489 48.5154 20.8203 47.6857 20.1632 47.4782C17.673 46.7003 17.2926 45.4903 19.1256 44.2802C19.385 44.1247 29.3976 40.2006 41.3815 35.5679C58.8992 28.8089 63.378 27.1494 64.0525 27.1321C64.7788 27.1148 64.9517 27.184 65.4532 27.6853Z" fill="white"/>
<path d="M63.3784 27.2879C62.5656 27.4953 19.6794 44.0557 19.2297 44.3322C17.8117 45.2484 17.7771 46.2683 19.126 46.9598C19.3335 47.0635 22.0139 47.9451 25.0747 48.8959L30.643 50.6418L31.1964 50.3133C31.4904 50.1405 37.0241 46.6659 43.4916 42.5863C57.274 33.9086 56.4785 34.3753 57.2048 34.3753C57.6718 34.3753 57.7755 34.4271 57.7236 34.7037C57.689 34.9457 44.2006 47.3055 37.0241 53.6669C36.9376 53.7533 36.1594 64.8685 36.2286 64.9376C36.2632 64.9722 36.5918 64.9031 36.9376 64.7993C37.4045 64.6438 38.3729 63.8313 40.1195 62.1372C41.5029 60.7889 42.8691 59.4751 43.1803 59.1985L43.7164 58.7145L49.2501 62.7941C52.2937 65.0413 55.0605 66.9947 55.4064 67.133C56.7552 67.7035 57.7755 67.3232 58.3289 66.0612C58.7266 65.1624 66.0588 30.5204 66.0588 29.5351C66.0588 27.9275 64.8656 26.9249 63.3784 27.2879Z" fill="#007163"/>
</g>
<defs>
<clipPath id="clip0_1764_1467">
<rect width="88.5229" height="88.5229" fill="white" transform="translate(0 0.477539)"/>
</clipPath>
</defs>
</svg>
