<svg width="89" height="89" viewBox="0 0 89 89" fill="none" xmlns="http://www.w3.org/2000/svg">
<g clip-path="url(#clip0_1764_1474)">
<path d="M75.5866 12.9593C67.2387 4.60747 56.1377 0.004426 44.3109 0C19.9401 0 0.10623 19.8241 0.0973772 44.1936C0.0929509 51.9834 2.12901 59.5872 5.99753 66.2882L0 88.52L23.1624 83.045C29.6203 86.5681 36.8881 88.4226 44.2888 88.427H44.3065C68.6728 88.427 88.5067 68.5986 88.52 44.2334C88.5288 32.4204 83.9344 21.3156 75.5866 12.9593ZM65.9418 59.99C65.0212 62.5704 60.5109 65.0578 58.4836 65.2392C56.4564 65.4251 54.5576 66.1554 45.2271 62.4774C33.9978 58.0514 26.907 46.5394 26.3581 45.8047C25.8049 45.0655 21.8478 39.8163 21.8478 34.3812C21.8478 28.946 24.7027 26.2727 25.7163 25.1707C26.7299 24.0642 27.925 23.7897 28.6642 23.7897C29.399 23.7897 30.1381 23.7897 30.7799 23.8163C31.5678 23.8473 32.4398 23.8871 33.2675 25.7239C34.2501 27.9104 36.3968 33.372 36.6712 33.9253C36.9457 34.4785 37.1316 35.1247 36.7642 35.8595C36.3968 36.5942 36.2109 37.0545 35.6621 37.7007C35.1088 38.3469 34.5024 39.1391 34.0066 39.6348C33.4534 40.1837 32.878 40.7856 33.5198 41.8877C34.166 42.9942 36.3791 46.6102 39.6634 49.5358C43.886 53.2979 47.4402 54.4619 48.5468 55.0196C49.6533 55.5728 50.2951 55.4799 50.9414 54.7408C51.5876 54.006 53.7033 51.5186 54.4381 50.4121C55.1728 49.3056 55.912 49.4915 56.9256 49.8589C57.9392 50.2262 63.3702 52.8995 64.4723 53.4528C65.5789 54.006 66.3136 54.2805 66.5881 54.7408C66.8625 55.1966 66.8625 57.4096 65.9418 59.99Z" fill="white"/>
</g>
<defs>
<clipPath id="clip0_1764_1474">
<rect width="88.5063" height="88.5063" fill="white"/>
</clipPath>
</defs>
</svg>
